<svg width="23" height="16" viewBox="0 0 23 16" fill="none" xmlns="http://www.w3.org/2000/svg">
<path d="M21.8693 2.41713C21.6129 1.4657 20.8574 0.716374 19.898 0.46208C18.1592 0 11.1867 0 11.1867 0C11.1867 0 4.21419 0 2.47531 0.46208C1.51599 0.716414 0.760444 1.4657 0.504007 2.41713C0.0380859 4.14167 0.0380859 7.73975 0.0380859 7.73975C0.0380859 7.73975 0.0380859 11.3378 0.504007 13.0624C0.760444 14.0138 1.51599 14.7319 2.47531 14.9862C4.21419 15.4483 11.1867 15.4483 11.1867 15.4483C11.1867 15.4483 18.1592 15.4483 19.898 14.9862C20.8574 14.7319 21.6129 14.0138 21.8693 13.0624C22.3353 11.3378 22.3353 7.73975 22.3353 7.73975C22.3353 7.73975 22.3353 4.14167 21.8693 2.41713ZM8.90627 11.0065V4.47296L14.7339 7.73983L8.90627 11.0065Z" fill="black"/>
</svg>
