<svg width="158" height="39" viewBox="0 0 158 39" fill="none" xmlns="http://www.w3.org/2000/svg">
<path fill-rule="evenodd" clip-rule="evenodd" d="M11.9762 34.9079C14.7852 32.8487 18.5501 31.8206 22.3151 31.8206C27.7913 31.8206 33.2675 33.9991 35.7991 38.35H44.627L41.9752 33.788C36.2647 23.9756 22.4322 23.0088 11.9762 34.9079V34.9079ZM33.508 19.2362L22.3274 0L0 38.35H8.82797C13.78 29.838 22.1455 22.253 33.4957 19.2362" fill="#EE353C"/>
<path fill-rule="evenodd" clip-rule="evenodd" d="M59.4707 14.3442V27.6599H57.7871V25.3713C57.1161 26.1954 56.275 26.8673 55.3203 27.3417C54.0345 27.9519 52.5881 28.1461 51.185 27.8969C49.782 27.6477 48.4933 26.9676 47.5007 25.9526C46.844 25.2978 46.3271 24.5185 45.9806 23.6611C45.6341 22.8037 45.4653 21.8859 45.4841 20.9623C45.47 20.0489 45.6434 19.1422 45.9938 18.2974C46.3442 17.4526 46.8643 16.6874 47.5223 16.0485C48.1518 15.3912 48.9114 14.8701 49.7535 14.5178C50.5956 14.1656 51.5019 13.9898 52.4157 14.0015C53.4554 13.9862 54.4828 14.2258 55.4067 14.6992C56.3537 15.2031 57.1689 15.9197 57.7871 16.792V14.3442H59.4707ZM52.5637 15.6538C51.6237 15.647 50.6993 15.8925 49.8883 16.3643C49.0774 16.8361 48.4101 17.5167 47.957 18.334C47.4843 19.1539 47.2356 20.082 47.2356 21.0266C47.2356 21.9711 47.4843 22.8993 47.957 23.7191C48.4164 24.5495 49.0927 25.2418 49.915 25.7232C50.7109 26.192 51.6197 26.4383 52.5452 26.4361C53.4885 26.4363 54.4155 26.1916 55.234 25.7262C56.0552 25.2814 56.7329 24.6153 57.1889 23.8048C57.6528 22.9697 57.8887 22.0289 57.8734 21.0755C57.8919 20.3611 57.7648 19.6504 57.4999 18.9858C57.235 18.3213 56.8377 17.7167 56.3317 17.2081C55.8461 16.7045 55.2605 16.3064 54.612 16.0389C53.9634 15.7713 53.266 15.6402 52.5637 15.6538V15.6538ZM63.0999 27.6599H64.8267V9.20703H63.0999V27.6599ZM66.5997 14.3442H68.3757L72.4829 24.0128L76.7998 14.3412H77.1081L81.3972 24.0128L85.5692 14.3412H87.3699L81.5483 27.6599H81.2215L76.9447 18.1291L72.6433 27.6599H72.3349L66.5997 14.3442ZM102.772 14.3442V27.6599H101.073V25.3713C100.411 26.193 99.579 26.8648 98.6338 27.3417C97.348 27.9519 95.9015 28.1461 94.4985 27.8969C93.0955 27.6477 91.8068 26.9676 90.8141 25.9526C90.1575 25.2978 89.6406 24.5185 89.2941 23.6611C88.9476 22.8037 88.7787 21.8859 88.7975 20.9623C88.7835 20.0489 88.9569 19.1422 89.3073 18.2974C89.6577 17.4526 90.1777 16.6874 90.8357 16.0485C91.4653 15.3912 92.2249 14.8701 93.067 14.5178C93.9091 14.1656 94.8154 13.9898 95.7292 14.0015C96.7688 13.9862 97.7962 14.2258 98.7201 14.6992C99.6571 15.2065 100.463 15.923 101.073 16.792V14.3442H102.772ZM95.8648 15.6538C94.9248 15.647 94.0004 15.8925 93.1895 16.3643C92.3785 16.8361 91.7112 17.5167 91.2581 18.334C90.7854 19.1539 90.5368 20.082 90.5368 21.0266C90.5368 21.9711 90.7854 22.8993 91.2581 23.7191C91.7175 24.5495 92.3939 25.2418 93.2162 25.7232C94.012 26.192 94.9208 26.4383 95.8463 26.4361C96.7897 26.4363 97.7166 26.1916 98.5351 25.7262C99.3563 25.2814 100.034 24.6153 100.49 23.8048C100.955 22.9703 101.191 22.0291 101.175 21.0755C101.193 20.3611 101.066 19.6504 100.801 18.9858C100.536 18.3213 100.139 17.7167 99.6328 17.2081C99.1474 16.7044 98.5618 16.3062 97.9132 16.0386C97.2646 15.7711 96.5671 15.64 95.8648 15.6538V15.6538ZM105.214 14.3442H107.042L111.668 24.6003L116.142 14.3442H117.992L109.975 32.531H108.14L110.73 26.6564L105.217 14.3442H105.214ZM126.949 15.8098L125.839 16.9511C124.914 16.0597 124.013 15.614 123.135 15.614C122.603 15.6038 122.088 15.8016 121.701 16.1647C121.514 16.3241 121.364 16.5217 121.26 16.744C121.157 16.9663 121.103 17.2081 121.103 17.4529C121.116 17.9054 121.29 18.3388 121.593 18.6767C121.923 19.0745 122.614 19.5457 123.665 20.0842C124.951 20.7451 125.824 21.3784 126.28 21.9934C126.731 22.5986 126.971 23.3336 126.962 24.0862C126.97 24.6037 126.872 25.1174 126.672 25.5954C126.472 26.0734 126.175 26.5053 125.799 26.8644C125.419 27.2384 124.967 27.5319 124.469 27.727C123.971 27.9221 123.439 28.0149 122.904 27.9996C122.137 28.0037 121.38 27.8331 120.69 27.5008C120.007 27.1808 119.408 26.7073 118.942 26.1179L120.03 24.894C120.909 25.8823 121.843 26.3718 122.827 26.3718C123.479 26.3877 124.113 26.1519 124.594 25.714C124.82 25.5222 125.002 25.2839 125.126 25.0155C125.251 24.7471 125.315 24.4551 125.315 24.1597C125.321 23.6802 125.154 23.2145 124.843 22.8471C124.516 22.4738 123.798 21.9965 122.669 21.4304C121.461 20.8063 120.638 20.1943 120.203 19.5946C119.767 18.9924 119.538 18.2674 119.549 17.5263C119.536 17.0579 119.622 16.592 119.801 16.1584C119.98 15.7248 120.248 15.333 120.588 15.0082C120.938 14.6743 121.351 14.4133 121.804 14.2404C122.256 14.0675 122.74 13.9863 123.224 14.0015C124.458 14.0015 125.699 14.6012 126.949 15.8006V15.8098Z" fill="#231F20"/>
<path fill-rule="evenodd" clip-rule="evenodd" d="M141.099 21.8837H134.007L131.232 27.6573H128.324L137.078 9.26562H138.05L146.683 27.6573H143.85L141.075 21.8837H141.099ZM139.921 19.3473L137.581 14.3967L135.213 19.3473H139.921Z" fill="#EE353C"/>
<path fill-rule="evenodd" clip-rule="evenodd" d="M148.108 27.6613H150.726V9.26953H148.108V27.6613Z" fill="#EE353C"/>
<path d="M154.146 28.0011C153.846 28.0011 153.564 27.9444 153.301 27.8311C153.041 27.7211 152.811 27.5678 152.611 27.3711C152.414 27.1711 152.259 26.9411 152.146 26.6811C152.036 26.4178 151.981 26.1361 151.981 25.8361C151.981 25.5361 152.036 25.2561 152.146 24.9961C152.259 24.7328 152.414 24.5028 152.611 24.3061C152.811 24.1061 153.041 23.9511 153.301 23.8411C153.564 23.7278 153.846 23.6711 154.146 23.6711C154.446 23.6711 154.726 23.7278 154.986 23.8411C155.249 23.9511 155.479 24.1061 155.676 24.3061C155.876 24.5028 156.031 24.7328 156.141 24.9961C156.254 25.2561 156.311 25.5361 156.311 25.8361C156.311 26.1361 156.254 26.4178 156.141 26.6811C156.031 26.9411 155.876 27.1711 155.676 27.3711C155.479 27.5678 155.249 27.7211 154.986 27.8311C154.726 27.9444 154.446 28.0011 154.146 28.0011ZM154.146 27.5561C154.386 27.5561 154.609 27.5128 154.816 27.4261C155.022 27.3361 155.204 27.2128 155.361 27.0561C155.521 26.8961 155.644 26.7128 155.731 26.5061C155.821 26.2994 155.866 26.0761 155.866 25.8361C155.866 25.5961 155.821 25.3728 155.731 25.1661C155.644 24.9594 155.521 24.7778 155.361 24.6211C155.204 24.4611 155.022 24.3378 154.816 24.2511C154.609 24.1611 154.386 24.1161 154.146 24.1161C153.906 24.1161 153.682 24.1611 153.476 24.2511C153.269 24.3378 153.086 24.4611 152.926 24.6211C152.769 24.7778 152.646 24.9594 152.556 25.1661C152.469 25.3728 152.426 25.5961 152.426 25.8361C152.426 26.0761 152.469 26.2994 152.556 26.5061C152.646 26.7128 152.769 26.8961 152.926 27.0561C153.086 27.2128 153.269 27.3361 153.476 27.4261C153.682 27.5128 153.906 27.5561 154.146 27.5561ZM153.476 26.8411V24.8261H154.116C154.392 24.8261 154.596 24.8744 154.726 24.9711C154.856 25.0678 154.921 25.2161 154.921 25.4161C154.921 25.5361 154.887 25.6411 154.821 25.7311C154.757 25.8211 154.666 25.8944 154.546 25.9511L155.126 26.8411H154.606L154.151 26.0711H153.931V26.8411H153.476ZM153.931 25.7311H154.106C154.216 25.7311 154.301 25.7078 154.361 25.6611C154.424 25.6111 154.456 25.5344 154.456 25.4311C154.456 25.2578 154.337 25.1711 154.101 25.1711H153.931V25.7311Z" fill="#231F20"/>
</svg>
